<mxfile host="Electron" modified="2024-06-09T03:00:32.396Z" agent="Mozilla/5.0 (Windows NT 10.0; Win64; x64) AppleWebKit/537.36 (KHTML, like Gecko) draw.io/24.5.1 Chrome/124.0.6367.207 Electron/30.0.6 Safari/537.36" etag="gZghdzN-QHEvntzlXbsn" version="24.5.1" type="device">
  <diagram name="Page-1" id="AvLsPoYU9DnG-tsBDQSp">
    <mxGraphModel dx="1889" dy="630" grid="1" gridSize="10" guides="1" tooltips="1" connect="1" arrows="1" fold="1" page="1" pageScale="1" pageWidth="827" pageHeight="400" math="1" shadow="0">
      <root>
        <mxCell id="0" />
        <mxCell id="1" parent="0" />
        <mxCell id="5vA1G1oYRq41nmhq3ju5-3" style="edgeStyle=orthogonalEdgeStyle;rounded=0;orthogonalLoop=1;jettySize=auto;html=1;entryX=0;entryY=0.5;entryDx=0;entryDy=0;" edge="1" parent="1" source="ogoglfJcI44DMrGjK-La-11" target="ogoglfJcI44DMrGjK-La-20">
          <mxGeometry relative="1" as="geometry" />
        </mxCell>
        <mxCell id="ogoglfJcI44DMrGjK-La-11" value="LTV-IIR" style="rounded=0;whiteSpace=wrap;html=1;" parent="1" vertex="1">
          <mxGeometry x="80" y="110" width="120" height="60" as="geometry" />
        </mxCell>
        <mxCell id="5vA1G1oYRq41nmhq3ju5-2" style="edgeStyle=orthogonalEdgeStyle;rounded=0;orthogonalLoop=1;jettySize=auto;html=1;entryX=0;entryY=0.5;entryDx=0;entryDy=0;" edge="1" parent="1" source="ogoglfJcI44DMrGjK-La-13" target="ogoglfJcI44DMrGjK-La-14">
          <mxGeometry relative="1" as="geometry" />
        </mxCell>
        <mxCell id="ogoglfJcI44DMrGjK-La-13" value="LTV-IIR" style="rounded=0;whiteSpace=wrap;html=1;" parent="1" vertex="1">
          <mxGeometry x="440" y="110" width="120" height="60" as="geometry" />
        </mxCell>
        <mxCell id="AOBaSeOex1EAf5kaxHh4-7" style="edgeStyle=orthogonalEdgeStyle;rounded=0;orthogonalLoop=1;jettySize=auto;html=1;" parent="1" source="ogoglfJcI44DMrGjK-La-14" edge="1">
          <mxGeometry relative="1" as="geometry">
            <mxPoint x="779" y="140" as="targetPoint" />
          </mxGeometry>
        </mxCell>
        <mxCell id="ogoglfJcI44DMrGjK-La-14" value="Spectral squence time reversal" style="rounded=0;whiteSpace=wrap;html=1;" parent="1" vertex="1">
          <mxGeometry x="619" y="110" width="120" height="60" as="geometry" />
        </mxCell>
        <mxCell id="AOBaSeOex1EAf5kaxHh4-4" style="edgeStyle=orthogonalEdgeStyle;rounded=0;orthogonalLoop=1;jettySize=auto;html=1;entryX=0;entryY=0.5;entryDx=0;entryDy=0;" parent="1" source="ogoglfJcI44DMrGjK-La-20" target="ogoglfJcI44DMrGjK-La-13" edge="1">
          <mxGeometry relative="1" as="geometry" />
        </mxCell>
        <mxCell id="ogoglfJcI44DMrGjK-La-20" value="Spectral squence time reversal" style="rounded=0;whiteSpace=wrap;html=1;" parent="1" vertex="1">
          <mxGeometry x="260" y="110" width="120" height="60" as="geometry" />
        </mxCell>
        <mxCell id="AOBaSeOex1EAf5kaxHh4-6" value="$$X[m]$$" style="text;html=1;strokeColor=none;fillColor=none;align=center;verticalAlign=middle;whiteSpace=wrap;rounded=0;" parent="1" vertex="1">
          <mxGeometry x="-8" y="125" width="60" height="30" as="geometry" />
        </mxCell>
        <mxCell id="AOBaSeOex1EAf5kaxHh4-8" value="$$Y[m]$$" style="text;html=1;strokeColor=none;fillColor=none;align=center;verticalAlign=middle;whiteSpace=wrap;rounded=0;" parent="1" vertex="1">
          <mxGeometry x="780" y="125" width="60" height="30" as="geometry" />
        </mxCell>
        <mxCell id="AOBaSeOex1EAf5kaxHh4-9" style="edgeStyle=orthogonalEdgeStyle;rounded=0;orthogonalLoop=1;jettySize=auto;html=1;entryX=-0.02;entryY=0.496;entryDx=0;entryDy=0;entryPerimeter=0;" parent="1" target="ogoglfJcI44DMrGjK-La-11" edge="1">
          <mxGeometry relative="1" as="geometry">
            <mxPoint x="51" y="140" as="sourcePoint" />
          </mxGeometry>
        </mxCell>
        <mxCell id="5vA1G1oYRq41nmhq3ju5-1" value="$$X[-m]$$" style="text;html=1;strokeColor=none;fillColor=none;align=center;verticalAlign=middle;whiteSpace=wrap;rounded=0;" vertex="1" parent="1">
          <mxGeometry x="380" y="110" width="60" height="30" as="geometry" />
        </mxCell>
      </root>
    </mxGraphModel>
  </diagram>
</mxfile>
